<svg width="407" height="57" viewBox="0 0 407 57" fill="none" xmlns="http://www.w3.org/2000/svg">
<path d="M361.829 28.9527V16.7954V4.63806C361.829 4.20531 360.787 2.27458 360.418 1.83276C359.681 0.950371 358.849 0.799586 358.175 0H371.808C372.447 0 373.904 1.13718 374.344 1.68045C374.66 2.0706 375.603 3.72399 375.603 4.07587V16.7954V55.6567H365.343C363.883 55.6567 360.484 53.965 359.295 52.9911L335.406 26.9851V55.9378H317.979L320.508 54.1104C321.245 53.1252 321.919 52.0379 321.926 50.7496L321.914 5.19969C321.758 3.51208 320.949 2.06549 319.648 1.00093L317.979 0H336.109L359.715 26.9907L361.829 28.9527Z" fill="white"/>
<path d="M104.768 0C117.128 1.29163 121.957 17.0591 111.007 23.6663L108.002 24.7341C115.12 25.3346 119.862 29.4433 121.128 36.4864C123.318 48.6747 113.83 55.2148 102.814 55.951L63.308 55.9357L65.9559 53.9487C66.9854 52.8379 66.9746 51.589 67.2432 50.1763C66.4939 35.8498 68.2357 20.5203 67.2551 6.31172C67.1785 5.20117 66.9412 3.64011 66.353 2.71635L63.3069 0H104.768ZM87.7621 24.1741H95.4922C96.088 24.1741 98.5689 22.906 99.1052 22.4463C102.491 19.544 102.002 12.401 97.7939 10.3475C94.5645 8.7715 92.0603 9.38224 88.7477 9.55894C87.4886 9.62611 86.209 9.50793 84.9512 9.55722V45.8184H97.4599C97.7683 45.8184 100.344 44.8765 100.785 44.6458C102.822 43.5807 104.167 41.5089 104.348 39.2127C104.719 34.5063 98.6305 30.4441 95.1586 28.162L87.7621 24.1741Z" fill="white"/>
<path d="M126.272 55.9379L129.084 53.8305L130.077 52.0127V3.92531C129.504 2.27198 128.357 1.39219 127.116 0.283325L163.53 0.268066C174.836 1.18621 184.826 6.39192 181.567 19.4553C179.891 26.1739 175.399 28.7586 169.053 30.2757C168.757 30.3464 168.356 30.2264 168.438 30.6371C172.321 31.3765 174.558 34.9551 176.078 38.3176C177.473 41.4036 178.787 45.7471 180.605 49.3807C181.641 51.4527 182.84 53.2938 184.311 54.5392L186.708 56.219H168.296C168.202 56.219 166.885 55.4805 166.653 55.3324C164.952 54.246 163.4 52.0076 161.986 49.3807C159.709 45.1497 157.789 39.9106 156.18 36.8527C154.856 34.338 153.342 31.8477 151.69 29.5366C151.175 28.8166 150.158 28.294 150.165 27.2663H159.301C159.42 27.2663 161.24 26.528 161.509 26.3819C162.809 25.6736 164.12 24.1909 164.71 22.8371C166.456 18.8295 165.573 12.9861 161.321 10.9098C160.936 10.7214 158.407 9.83841 158.176 9.83841H148.198V55.9379H126.272Z" fill="white"/>
<path d="M257.824 55.9378H235.899L220.998 14.8985L215.38 29.5139C217.483 29.4418 219.613 29.6101 221.717 29.5279C222.465 29.4987 223.133 29.2514 223.943 29.2225C224.348 29.208 225.08 29.0019 224.935 29.6525C224.045 30.5658 223.142 31.7292 222.456 32.7965C220.399 35.9931 219.996 40.4443 215.673 41.1936C214.639 41.373 211.701 41.1076 211.299 41.598L206.103 55.6567H189.8C192.803 51.3007 194.984 46.3809 196.545 41.3222L190.219 41.319C188.585 41.5433 186.937 41.8213 185.303 42.0286C185.03 42.0632 184.674 42.4083 184.742 41.8854C185.103 41.9349 185.194 41.7601 185.394 41.5358C186.448 40.3535 187.575 39.1519 188.341 37.7543C189.939 34.84 190.134 30.3009 194.185 29.8241C195.371 29.6844 200.152 30.0972 200.626 29.5189C203.122 22.2485 206.346 15.2057 208.846 7.94305C209.744 5.33498 211.145 2.96271 208.336 1.00017L206.665 0H231.823C231.901 0 233.11 0.411532 233.292 0.498962C234.207 0.937786 235.303 2.14291 235.852 2.99854C241.999 18.6017 247.198 34.6264 253.188 50.3148C254.315 52.6081 255.872 54.3269 257.824 55.9378Z" fill="white"/>
<path d="M293.242 0H306.875C307.647 0 309.508 1.579 309.956 2.26038C310.441 2.99895 310.868 4.59518 310.952 5.48052C311.92 15.6242 310.216 27.2382 310.964 37.5389C309.5 52.7469 294.943 57.5125 281.564 56.7941C268.727 56.1047 258.258 49.9291 257.261 36.1222C256.799 29.7388 257.134 23.031 257.31 16.3806C257.417 12.3299 257.466 8.30052 257.24 4.37865C257.126 3.53536 256.654 2.76539 256.132 2.11369C255.342 1.12681 254.418 0.842755 253.608 0H272.582C272.679 0 273.911 0.575377 274.118 0.712998C275.47 1.61594 276.443 3.33848 276.63 4.9464C276.846 8.68733 276.809 12.5237 276.711 16.3806C276.546 22.9346 276.208 29.5478 276.645 35.8523C276.953 40.2899 278.939 43.8645 283.396 45.1234C289.014 46.7102 296.135 44.2241 296.87 37.7808L296.9 4.63445C296.783 3.13167 295.9 2.03911 294.79 1.12245C294.285 0.704903 293.502 0.636681 293.242 0Z" fill="white"/>
<path d="M385.658 2.24974C386.18 2.90144 386.652 3.6714 386.766 4.51469C386.992 8.43657 386.943 12.466 386.836 16.5167H406.237C406.335 12.6598 406.372 8.82337 406.156 5.08244C405.969 3.47452 404.996 1.75199 403.644 0.849045C403.437 0.711423 402.205 0.136047 402.108 0.136047H384.134C384.944 0.978802 384.868 1.26286 385.658 2.24974Z" fill="white"/>
<path d="M406.113 21.6807H387.113V55.6807H406.113V21.6807Z" fill="white"/>
<path d="M0.0649414 24.47C1.14902 9.37685 16.3594 -0.609292 30.6841 4.11255C30.9518 5.01495 30.1905 5.50535 29.9204 6.25806C28.6193 9.88484 29.4096 13.8043 32.3872 16.3245C33.5621 17.3188 34.774 17.2152 34.9272 18.842C35.1171 20.8602 34.8985 21.9215 36.2026 23.7532C38.2588 26.641 40.935 27.3108 44.3403 27.1438C45.5542 27.0843 47.1097 26.0405 47.021 28.1184C46.7489 34.4932 42.7603 41.4637 37.7114 45.2502C21.4919 57.4142 -1.37579 44.5298 0.0649414 24.47ZM18.8169 41.1389C22.9055 42.0481 22.8855 36.1204 18.8179 37.0393C16.9206 37.4681 16.7055 40.6693 18.8169 41.1389ZM6.81592 40.1389C10.9049 41.0484 10.8848 35.1201 6.81689 36.0393C4.91962 36.4681 4.70449 39.6693 6.81592 40.1389ZM32.8276 38.0901C38.3636 38.9221 38.248 30.2355 32.5923 31.4202C29.2271 32.1252 29.3118 37.5613 32.8276 38.0901ZM15.8101 21.1643C14.0699 19.2299 11.1919 21.5798 12.022 23.5999C11.6941 23.5423 11.3401 23.5235 10.9604 23.551C5.82446 23.9229 6.5232 31.6841 11.4458 31.3704C15.0079 31.1433 15.8374 27.1941 14.2505 24.9924C15.8653 24.8095 17.2113 22.7221 15.8101 21.1643ZM27.811 22.1643C25.8554 19.9902 22.4594 23.2288 24.5093 25.3274C26.5314 27.3972 29.7198 24.2863 27.811 22.1643ZM18.8179 12.6086C17.369 11.3621 14.1559 11.8942 13.6235 13.8538C12.7885 16.9277 15.4223 19.4329 18.2544 17.9221C20.1426 16.9145 20.3477 13.9251 18.8179 12.6086Z" fill="white"/>
</svg>
