<svg width="407" height="57" viewBox="0 0 407 57" fill="none" xmlns="http://www.w3.org/2000/svg">
<path d="M361.829 28.9528V16.7955V4.63812C361.829 4.20537 360.787 2.27464 360.418 1.83282C359.681 0.950432 358.849 0.799647 358.175 6.10352e-05H371.808C372.447 6.10352e-05 373.904 1.13724 374.344 1.68051C374.66 2.07066 375.603 3.72405 375.603 4.07593V16.7955V55.6568H365.343C363.883 55.6568 360.484 53.965 359.295 52.9912L335.406 26.9851V55.9379H317.979L320.508 54.1104C321.245 53.1252 321.919 52.038 321.926 50.7497L321.914 5.19975C321.758 3.51214 320.949 2.06555 319.648 1.00099L317.979 6.10352e-05H336.109L359.715 26.9907L361.829 28.9528Z" fill="#4DA57E"/>
<path d="M104.768 0C117.128 1.29163 121.957 17.0591 111.007 23.6663L108.002 24.7341C115.12 25.3346 119.862 29.4433 121.128 36.4864C123.318 48.6747 113.83 55.2148 102.814 55.951L63.308 55.9357L65.9559 53.9487C66.9854 52.8379 66.9746 51.589 67.2432 50.1763C66.4939 35.8498 68.2357 20.5203 67.2551 6.31172C67.1785 5.20117 66.9412 3.64011 66.353 2.71635L63.3069 0H104.768ZM87.7621 24.1741H95.4922C96.088 24.1741 98.5689 22.906 99.1052 22.4463C102.491 19.544 102.002 12.401 97.7939 10.3475C94.5645 8.7715 92.0603 9.38224 88.7477 9.55894C87.4886 9.62611 86.209 9.50793 84.9512 9.55722V45.8184H97.4599C97.7683 45.8184 100.344 44.8765 100.785 44.6458C102.822 43.5807 104.167 41.5089 104.348 39.2127C104.719 34.5063 98.6305 30.4441 95.1586 28.162L87.7621 24.1741Z" fill="#4CA57E"/>
<path d="M126.272 55.9379L129.084 53.8304L130.077 52.0126V3.92525C129.504 2.27192 128.357 1.39213 127.116 0.283264L163.53 0.268005C174.836 1.18615 184.826 6.39186 181.567 19.4553C179.891 26.1739 175.399 28.7585 169.053 30.2756C168.757 30.3464 168.356 30.2263 168.438 30.637C172.321 31.3764 174.558 34.955 176.078 38.3176C177.473 41.4035 178.787 45.7471 180.605 49.3806C181.641 51.4526 182.84 53.2937 184.311 54.5391L186.708 56.2189H168.296C168.202 56.2189 166.885 55.4804 166.653 55.3323C164.952 54.2459 163.4 52.0076 161.986 49.3806C159.709 45.1496 157.789 39.9105 156.18 36.8526C154.856 34.338 153.342 31.8476 151.69 29.5365C151.175 28.8165 150.158 28.2939 150.165 27.2662H159.301C159.42 27.2662 161.24 26.528 161.509 26.3819C162.809 25.6735 164.12 24.1909 164.71 22.8371C166.456 18.8295 165.573 12.986 161.321 10.9098C160.936 10.7213 158.407 9.83835 158.176 9.83835H148.198V55.9379H126.272Z" fill="#4DA57E"/>
<path d="M257.824 55.9378H235.899L220.998 14.8985L215.38 29.5139C217.483 29.4418 219.613 29.6101 221.717 29.5279C222.465 29.4987 223.133 29.2514 223.943 29.2225C224.348 29.208 225.08 29.0019 224.935 29.6525C224.045 30.5658 223.142 31.7292 222.456 32.7965C220.399 35.9931 219.996 40.4443 215.673 41.1936C214.639 41.373 211.701 41.1076 211.299 41.598L206.103 55.6567H189.8C192.803 51.3007 194.984 46.3809 196.545 41.3222L190.219 41.319C188.585 41.5433 186.937 41.8213 185.303 42.0286C185.03 42.0632 184.674 42.4083 184.742 41.8854C185.103 41.9349 185.194 41.7601 185.394 41.5358C186.448 40.3535 187.575 39.1519 188.341 37.7543C189.939 34.84 190.134 30.3009 194.185 29.8241C195.371 29.6844 200.152 30.0972 200.626 29.5189C203.122 22.2485 206.346 15.2057 208.846 7.94305C209.744 5.33498 211.145 2.96271 208.336 1.00017L206.665 0H231.823C231.901 0 233.11 0.411532 233.292 0.498962C234.207 0.937786 235.303 2.14291 235.852 2.99854C241.999 18.6017 247.198 34.6264 253.188 50.3148C254.315 52.6081 255.872 54.3269 257.824 55.9378Z" fill="#4DA57E"/>
<path d="M293.242 0H306.875C307.647 0 309.508 1.579 309.956 2.26038C310.441 2.99895 310.868 4.59518 310.952 5.48052C311.92 15.6242 310.216 27.2382 310.964 37.5389C309.5 52.7469 294.943 57.5125 281.564 56.7941C268.727 56.1047 258.258 49.9291 257.261 36.1222C256.799 29.7388 257.134 23.031 257.31 16.3806C257.417 12.3299 257.466 8.30052 257.24 4.37865C257.126 3.53536 256.654 2.76539 256.132 2.11369C255.342 1.12681 254.418 0.842755 253.608 0H272.582C272.679 0 273.911 0.575377 274.118 0.712998C275.47 1.61594 276.443 3.33848 276.63 4.9464C276.846 8.68733 276.809 12.5237 276.711 16.3806C276.546 22.9346 276.208 29.5478 276.645 35.8523C276.953 40.2899 278.939 43.8645 283.396 45.1234C289.014 46.7102 296.135 44.2241 296.87 37.7808L296.9 4.63445C296.783 3.13167 295.9 2.03911 294.79 1.12245C294.285 0.704903 293.502 0.636681 293.242 0Z" fill="#4DA57E"/>
<path d="M385.658 2.24974C386.18 2.90144 386.652 3.6714 386.766 4.51469C386.992 8.43657 386.943 12.466 386.836 16.5167H406.237C406.335 12.6598 406.372 8.82337 406.156 5.08244C405.969 3.47452 404.996 1.75199 403.644 0.849045C403.437 0.711423 402.205 0.136047 402.108 0.136047H384.134C384.944 0.978802 384.868 1.26286 385.658 2.24974Z" fill="#4DA57E"/>
<path d="M406.113 21.6806H387.113V55.6806H406.113V21.6806Z" fill="#4DA57E"/>
<path d="M0.0648798 24.4697C1.14904 9.37669 16.3595 -0.609435 30.684 4.11225C30.9517 5.01458 30.1905 5.50516 29.9203 6.25776C28.6192 9.88463 29.4103 13.804 32.3881 16.3242C33.563 17.3185 34.7741 17.2156 34.9272 18.8427C35.117 20.8606 34.8986 21.9214 36.2026 23.7529C38.2587 26.6407 40.935 27.3104 44.3403 27.1435C45.5541 27.084 47.1096 26.0402 47.0209 28.1181C46.7489 34.4931 42.7604 41.4643 37.7114 45.2509C21.4918 57.4147 -1.37594 44.5295 0.0648798 24.4697ZM18.8168 41.1386C22.9057 42.048 22.8856 36.12 18.8178 37.039C16.9205 37.4678 16.7054 40.669 18.8168 41.1386ZM6.81586 40.1386C10.9049 41.0482 10.8848 35.1197 6.81683 36.039C4.91962 36.4678 4.7046 39.6688 6.81586 40.1386ZM32.8286 38.0898C38.3641 38.9213 38.2478 30.2352 32.5922 31.4199C29.227 32.1251 29.3124 37.5613 32.8286 38.0898ZM15.811 21.164C14.0706 19.2292 11.1916 21.5802 12.0229 23.6005C11.6948 23.5428 11.3404 23.5232 10.9604 23.5507C5.82461 23.9227 6.52336 31.6846 11.4457 31.371C15.0073 31.144 15.8375 27.1949 14.2514 24.9931C15.8658 24.8096 17.2117 22.7215 15.811 21.164ZM27.811 22.164C25.8553 19.9903 22.4595 23.2286 24.5092 25.3271C26.5313 27.3973 29.7198 24.2861 27.811 22.164ZM18.8178 12.6083C17.369 11.3619 14.1559 11.894 13.6235 13.8535C12.7884 16.9275 15.4222 19.4326 18.2543 17.9218C20.1426 16.9142 20.3478 13.9248 18.8178 12.6083Z" fill="#4EA882"/>
</svg>
