<svg width="417" height="58" viewBox="0 0 417 58" fill="none" xmlns="http://www.w3.org/2000/svg">
<path d="M370.83 29.2339V4.91919C370.83 4.48644 369.788 2.55571 369.419 2.11389C368.682 1.2315 367.85 1.08071 367.176 0.281128H380.809C381.448 0.281128 382.905 1.4183 383.345 1.96158C383.661 2.35173 384.604 4.00512 384.604 4.35699V55.9379H374.344C372.884 55.9379 369.485 54.2461 368.296 53.2722L344.407 27.2662V56.2189H326.979L329.509 54.3915C330.246 53.4063 330.92 52.3191 330.927 51.0307L330.915 5.48082C330.759 3.79321 329.949 2.34662 328.649 1.28206L326.979 0.281128H345.11L368.716 27.2718L370.83 29.2339Z" fill="white"/>
<path d="M113.77 0.281128C126.129 1.57276 130.958 17.3402 120.008 23.9474L117.003 25.0153C124.121 25.6157 128.863 29.7244 130.129 36.7676C132.32 48.9558 122.831 55.4959 111.815 56.2321L72.3092 56.2168L74.9571 54.2299C75.9866 53.1191 75.9758 51.8701 76.2444 50.4575C75.4952 36.1309 77.237 20.8014 76.2563 6.59285C76.1797 5.4823 75.9424 3.92124 75.3542 2.99748L72.3081 0.281128H113.77ZM96.7633 24.4553H104.493C105.089 24.4553 107.57 23.1871 108.106 22.7274C111.492 19.8251 111.003 12.6822 106.795 10.6286C103.566 9.05262 101.062 9.66337 97.7489 9.84007C96.4898 9.90724 95.2103 9.78905 93.9524 9.83835V46.0995H106.461C106.77 46.0995 109.345 45.1576 109.786 44.9269C111.823 43.8618 113.168 41.79 113.349 39.4938C113.721 34.7874 107.632 30.7252 104.16 28.4431L96.7633 24.4553Z" fill="white"/>
<path d="M135.273 56.2189L138.085 54.1115L139.078 52.2937V4.20631C138.505 2.55298 137.358 1.6732 136.117 0.564331L172.531 0.549072C183.837 1.46721 193.827 6.67293 190.568 19.7363C188.892 26.4549 184.4 29.0396 178.054 30.5567C177.758 30.6274 177.357 30.5074 177.439 30.9181C181.322 31.6575 183.559 35.2361 185.079 38.5986C187.269 43.4443 189.262 51.3908 193.312 54.8202L195.708 56.5H177.297C177.203 56.5 175.886 55.7615 175.654 55.6134C171.213 52.7772 167.79 42.0902 165.181 37.1337C163.857 34.619 162.343 32.1287 160.691 29.8176C160.176 29.0976 159.159 28.575 159.166 27.5473H168.302C168.421 27.5473 170.241 26.809 170.51 26.6629C171.81 25.9546 173.121 24.4719 173.711 23.1181C175.457 19.1105 174.574 13.2671 170.322 11.1908C169.937 11.0024 167.408 10.1194 167.177 10.1194H157.199V56.2189H135.273Z" fill="white"/>
<path d="M266.825 56.2189H244.9L229.999 15.1796L224.381 29.795C226.484 29.7229 228.614 29.8913 230.718 29.8091C231.466 29.7798 232.133 29.5325 232.943 29.5036C233.349 29.4891 234.081 29.283 233.935 29.9337C233.046 30.8469 232.143 32.0104 231.456 33.0777C229.4 36.2742 228.997 40.7254 224.674 41.4747C223.64 41.6541 220.702 41.3888 220.3 41.8792L215.104 55.9379H198.801C201.804 51.5818 203.985 46.662 205.546 41.6033L199.22 41.6002C197.586 41.8244 195.938 42.1024 194.304 42.3097C194.031 42.3443 193.675 42.6894 193.743 42.1665C194.104 42.216 194.195 42.0413 194.395 41.817C195.449 40.6346 196.576 39.433 197.342 38.0354C198.94 35.1211 199.135 30.582 203.186 30.1052C204.372 29.9656 209.153 30.3784 209.627 29.8C212.123 22.5296 215.347 15.4868 217.847 8.22418C218.745 5.61611 220.146 3.24383 217.336 1.2813L215.666 0.281128H240.824C240.902 0.281128 242.111 0.69266 242.293 0.78009C243.208 1.21891 244.304 2.42404 244.853 3.27966C251 18.8828 256.199 34.9076 262.189 50.5959C263.316 52.8893 264.873 54.6081 266.825 56.2189Z" fill="white"/>
<path d="M302.243 0.281128H315.876C316.648 0.281128 318.509 1.86013 318.957 2.5415C319.442 3.28008 319.869 4.8763 319.953 5.76164C320.921 15.9053 319.217 27.5193 319.965 37.82C318.501 53.0281 303.944 57.7937 290.565 57.0752C277.728 56.3859 267.259 50.2103 266.262 36.4033C265.519 26.1319 266.837 15.0206 266.241 4.65977C266.127 3.81648 265.655 3.04652 265.133 2.39482C264.343 1.40794 263.419 1.12388 262.609 0.281128H281.583C281.68 0.281128 282.912 0.856504 283.119 0.994125C284.471 1.89707 285.444 3.6196 285.631 5.22752C286.214 15.3254 284.951 26.1188 285.646 36.1335C285.954 40.5711 287.94 44.1456 292.397 45.4045C298.015 46.9913 305.136 44.5052 305.871 38.0619L305.901 4.91557C305.784 3.4128 304.901 2.32024 303.791 1.40358C303.286 0.98603 302.503 0.917809 302.243 0.281128Z" fill="white"/>
<path d="M413.838 22.2065H397.815V55.9378H413.838V22.2065Z" fill="white"/>
<path d="M416.649 0C416.587 0.80096 415.679 1.04512 415.124 1.70825C414.821 2.07047 413.838 3.7388 413.838 4.07588V14.6169H397.815V0.421646C397.815 0.391832 398.207 0 398.237 0H416.649Z" fill="white"/>
<path d="M0.0649414 23.7512C1.14902 8.65812 16.3595 -1.32791 30.6841 3.39374C30.9518 4.29616 30.1905 4.78651 29.9204 5.53925C28.6193 9.16608 29.4104 13.0855 32.3882 15.6057C33.563 16.5998 34.774 16.4964 34.9272 18.1232C35.1171 20.1413 34.8985 21.2027 36.2026 23.0344C38.2589 25.9223 40.9359 26.592 44.3413 26.425C45.5551 26.3652 47.1106 25.3219 47.022 27.3996C46.7498 33.7745 42.7604 40.7449 37.7114 44.5314C21.492 56.6954 -1.37569 43.8109 0.0649414 23.7512ZM19.5327 36.2248C19.3102 36.2321 19.072 36.2631 18.8179 36.3205C16.9207 36.7493 16.7057 39.9493 18.8169 40.4191C19.1362 40.4901 19.4305 40.5197 19.6997 40.5139H19.7007C21.2622 40.4795 21.9812 39.2616 21.8638 38.132C21.8475 37.9759 21.8153 37.8215 21.7671 37.6721C21.719 37.5231 21.6555 37.3789 21.5757 37.2433C21.4958 37.1076 21.4002 36.9801 21.2886 36.8644C20.9536 36.5176 20.4754 36.2764 19.855 36.2307C19.7515 36.223 19.6441 36.2211 19.5327 36.2248ZM32.8286 37.3713C38.3642 38.203 38.2485 29.5172 32.5933 30.7014C29.2278 31.4063 29.3124 36.8428 32.8286 37.3713ZM10.9604 22.8322C5.82497 23.2044 6.52363 30.9649 11.4458 30.6516C16.5157 30.3284 16.0508 22.4637 10.9604 22.8322ZM27.812 21.4455C27.2621 20.8342 26.5978 20.6503 25.9731 20.7492C25.6952 20.7932 25.4252 20.8934 25.1763 21.0363C24.9898 21.1434 24.8156 21.275 24.6587 21.425C24.554 21.525 24.457 21.6331 24.3696 21.7482C23.7582 22.5541 23.6124 23.6904 24.5093 24.6086C25.2675 25.3848 26.1897 25.4328 26.9458 25.0773C27.072 25.018 27.1937 24.9476 27.3091 24.8674C27.8852 24.4666 28.3075 23.8232 28.3853 23.1262C28.4008 22.9866 28.4028 22.8448 28.3892 22.7023C28.3484 22.2758 28.1696 21.8432 27.812 21.4455ZM18.8179 11.8898C17.369 10.6433 14.1559 11.1754 13.6235 13.1349C12.7887 16.2088 15.4224 18.7141 18.2544 17.2033C20.143 16.1958 20.348 13.2063 18.8179 11.8898Z" fill="white"/>
</svg>
