<svg width="48" height="48" viewBox="0 0 48 48" fill="none" xmlns="http://www.w3.org/2000/svg">
<path d="M0.0649414 21.5376C1.14902 6.44447 16.3594 -3.54166 30.6841 1.18018C30.9518 2.08253 30.1905 2.57304 29.9204 3.32568C28.6193 6.95254 29.4095 10.8719 32.3872 13.3921C33.5621 14.3864 34.773 14.2829 34.9263 15.9097C35.1162 17.9278 34.8985 18.9891 36.2026 20.8208C38.2588 23.7086 40.935 24.3784 44.3403 24.2114C45.5541 24.1518 47.1097 23.1082 47.021 25.186C46.7489 31.5608 42.7602 38.5312 37.7114 42.3179C21.4919 54.4819 -1.37581 41.5975 0.0649414 21.5376ZM18.8159 38.2065C22.905 39.1161 22.8849 33.1876 18.8169 34.1069C16.92 34.5359 16.705 37.7366 18.8159 38.2065ZM32.8276 35.1577C38.3635 35.9897 38.2478 27.3033 32.5923 28.4878C29.2269 29.1928 29.3115 34.6292 32.8276 35.1577ZM10.9604 20.6187C5.82435 20.9904 6.52316 28.7517 11.4458 28.438C16.5153 28.1146 16.0505 20.2504 10.9604 20.6187ZM27.811 19.2319C25.8554 17.0578 22.4588 20.2964 24.5083 22.395C26.5303 24.4651 29.7195 21.354 27.811 19.2319ZM18.8169 9.67627C17.368 8.42996 14.1549 8.96191 13.6226 10.9214C12.7877 13.9952 15.4215 16.5003 18.2534 14.9897C20.142 13.9823 20.347 10.9928 18.8169 9.67627Z" fill="#4EA882"/>
</svg>
